<svg width="982" height="450" viewBox="0 0 982 450" fill="none" xmlns="http://www.w3.org/2000/svg">
<path d="M64.5 1C51.0011 2.79723 44.1206 11.5126 34.5 30C27.2136 30.1287 23.8314 31.1696 20 36V58L9 74L1 80L5.5 90.5L7 97.5L12.5 99.797L23 105L23.8972 110.832C25.2716 119.766 29.1174 128.137 35 135V135L47 144.797L81 162L117.5 154.5C117.5 154.5 132.739 158.939 144.5 167C156.261 175.061 161.111 180.407 167.5 191C172.967 203.106 172.5 222 181.5 222C186.265 222 195.936 223.402 203.982 224.721C212.53 226.122 220.572 229.852 226.603 236.071C230.811 240.409 235.379 245.694 238 250.5L253.5 272C262.198 279.243 267.12 281.814 276 283.5C280.108 283.546 283.828 283.517 287.268 283.39C298.453 282.979 309.866 284.533 319.609 290.04V290.04C331.867 296.968 348.37 300.476 358.88 309.846C359.966 310.815 361.015 311.866 362 313C364.644 327.475 367.194 332.887 374.5 335.5C379.591 335.404 386.437 334.628 392.533 333.785C402.007 332.475 411.986 333.089 419.684 338.765C420.633 339.465 421.58 340.211 422.5 341C429.5 347 435.5 347.5 435.5 347.5C481.07 338.787 507.129 338.52 551 350C565.097 358.637 571.197 365.142 578 380.5C612.611 391.511 602.874 384.276 622 389C641.126 393.724 650.828 402.093 665.5 412.5C671.066 413.282 676.178 413.294 689 412.5C689 412.5 717.148 430.918 717 431C716.852 431.082 743.5 424.5 743.5 424.5H757C776.282 443.287 784.318 449.241 804.5 449C824.682 448.759 827.5 446.5 827.5 446.5L866.5 434.5L881 433.5L892 439L900 438.5L911 431.5L917 430H925.5C925.5 430 930 431 936.5 437.5C943 444 952.775 445.813 956.5 446C960.225 446.187 976.504 445.826 980.5 442L978 434L973.5 429L972 423L965 414L959.5 411L954.5 402C954.433 390.38 955.216 384.542 961 375L958.5 365.5C958.5 365.5 958.25 358 950 353.5C941.75 349 930 352 930 352C930 352 909.257 364.579 900 364.5C890.743 364.421 868.076 354.021 866.5 355C848.004 357.951 837.405 358.616 818 357.5C818 357.5 794.2 341.707 777.5 334.5C759.178 326.593 729 321 729 321L706.5 319L683.5 320L648.5 311L625 302.5L614.5 299L604.5 297.5L596 302.5L589.5 309.5H570L530 286L509 288L487.5 286L476 279C472.546 276.644 471.168 274.166 469.5 268L464.5 258C464.5 258 458 250 456.5 249.5C455 249 422.5 249.5 422.5 249.5L390.5 227L362 188L289 176L281.5 171L273 157L255.5 102.5L245 90L224.5 80.5L196.5 82L144.5 62.5L132.5 56.5L119 45.5L105 33.5L92 17L85.5 9.5L78.5 5.5L64.5 1Z" fill="#008000" stroke="black"/>
</svg>
