<svg width="948" height="437" viewBox="0 0 948 437" fill="none" xmlns="http://www.w3.org/2000/svg">
<path d="M52 47.9995C53.4307 51.6389 53.008 52.4841 52.0273 54.4449L52 54.4995C51.541 55.4176 50.2749 56.0806 48.7328 56.8882C46.9154 57.8399 44.7148 58.9923 43 60.9995C39.8302 64.7099 38.0772 66.7857 35 70.4995C43.8133 72.4915 48.537 73.9392 56 77.9995C62.4486 87.914 70.7045 95.8839 79.1959 104.081L79.1979 104.083C83.8132 108.538 88.498 113.061 93 118C105.785 132.025 169 151 169 151C169 151 216.5 142.5 227.5 174.5C229.929 181.565 232.114 188.899 234.249 196.065C241.783 221.353 248.695 244.551 263.5 246.499C333.773 255.746 334 256.999 334 256.999L362 295.5L393 319.5H425.5C425.5 319.5 433.5 319.5 442.5 342C451.5 364.5 501 356 501 356L541.5 379.5H561.5C561.5 379.5 571.5 366.5 579.5 367.5C585.949 368.306 587.199 368.787 597.133 372.61C599.522 373.53 602.413 374.643 606 376C624.5 383 654 390 654 390C654 390 673 387.5 694 390C715 392.5 728.5 396.5 728.5 396.5C755.18 408.135 768.201 414.85 788.5 427H813L840 424.5L872 435.5L891 427C891 427 894 421.5 910.5 421.5C927 421.5 930 432 930 432C930 432 933 432 932 419C931 406 941.5 396.5 941.5 396.5L946.5 371.5C943.992 366.665 939.2 364.813 925 363C915.169 364.773 910.998 364.747 903 363C898.299 371.194 895.63 375.698 888 376C879.205 378.287 874.361 378.666 866.5 371.5C850.628 381.306 845.741 381.4 844.5 371.5C840.48 377.137 836.635 378.361 826 376C822.615 378.49 816.836 373.604 801 356C801 356 775 360.5 769 350C763 339.5 765.5 338.5 765.5 338.5C756.434 339.207 751.647 339.408 745 338.5C740.267 359.593 736.885 367.274 728.5 367.5C708.442 359.259 698.971 353.559 697.5 334L685 345C692.195 362.24 692.529 368.994 681 371.5C673.222 373.914 666.019 357.193 658.852 340.553C652.658 326.174 646.49 311.855 640 310C609.261 318.499 594.103 320.281 574 313.5C561.48 309.739 561.508 301.412 574 275.5C568.704 266.166 564.569 264.451 553.5 272.5C545.738 280.822 540.866 282.644 531.5 281.5C530.944 281.116 530.401 280.742 529.871 280.376C521.561 274.652 516.429 271.116 516 265C510.755 260.543 507.208 259.571 501.471 257.998C498.498 257.182 494.989 254.499 490.244 254.499C485.5 254.499 444.939 215.998 450 191.5L428.5 179L395 186C389.728 184.633 386.772 197.431 381.5 196.065C376.228 194.698 373.272 180.367 368 179L350.5 151L334 132C329.642 131.73 320.5 116.26 310.5 118C300.5 119.739 290.271 115.452 280 104.081C264.657 90.6525 217.078 71.5403 210.5 65.5C203.922 59.4597 202.109 51.6071 202.5 29.5C144.365 14.2612 119.5 21.5 119.5 21.5L110.5 50C104.963 60.9354 99.5 71 90.5 71C81.5 71 67.5273 36.4202 67.5273 36.4202C67.5273 36.4202 23.3343 1.49517 2 1C30 32 35.7597 36.6942 52 47.9995Z" fill="#00D4FF" stroke="black"/>
</svg>
