<svg width="1005" height="582" viewBox="0 0 1005 582" fill="none" xmlns="http://www.w3.org/2000/svg">
<path d="M103.527 54.4449C104.508 52.4841 104.931 51.6389 103.5 47.9995C87.2597 36.6941 81.5 32 53.5 1C74.8343 1.49517 119.027 36.4202 119.027 36.4202C119.027 36.4202 133 71 142 71C151 71 156.463 60.9354 162 50L171 21.5C171 21.5 195.865 14.2612 254 29.5C253.609 51.6071 255.422 59.4597 262 65.5C268.578 71.5403 316.157 90.6525 331.5 104.081C341.771 115.452 352 119.739 362 118C372 116.26 381.142 131.73 385.5 132L402 150.999L419.5 179C424.772 180.367 427.728 194.698 433 196.065C438.272 197.431 441.228 184.633 446.5 186L480 179L501.5 191.5C496.439 215.998 537 254.499 541.744 254.499C546.489 254.499 549.998 257.183 552.971 257.998C558.708 259.571 562.255 260.543 567.5 265C567.929 271.116 573.061 274.652 581.371 280.376L581.374 280.378C581.903 280.743 582.445 281.116 583 281.5C592.366 282.644 597.238 280.822 605 272.5C616.069 264.451 620.204 266.166 625.5 275.5C613.008 301.412 612.98 309.739 625.5 313.5C645.603 320.281 660.761 318.499 691.5 310C697.99 311.855 704.158 326.173 710.352 340.553C717.519 357.193 724.722 373.914 732.5 371.5C744.029 368.994 743.695 362.24 736.5 345L749 334C750.471 353.559 759.942 359.259 780 367.5C788.385 367.274 791.767 359.593 796.5 338.5C803.147 339.408 807.934 339.207 817 338.5C817 338.5 814.5 339.5 820.5 350C826.5 360.5 852.5 356 852.5 356C868.336 373.604 874.115 378.49 877.5 376C888.135 378.361 891.98 377.137 896 371.5C897.241 381.4 902.128 381.306 918 371.5C925.861 378.666 930.705 378.287 939.5 376C947.13 375.698 949.799 371.194 954.5 363C962.498 364.747 966.669 364.773 976.5 363C990.7 364.813 995.492 366.665 998 371.5L993 396.5C993 396.5 982.5 406 983.5 419C984.5 432 981.5 432 981.5 432C981.5 432 978.5 421.5 962 421.5C945.5 421.5 942.5 427 942.5 427L923.5 435.5L891.5 424.5L864.5 427H840C819.701 414.85 806.68 408.135 780 396.5C780 396.5 766.5 392.5 745.5 390C724.5 387.5 705.5 390 705.5 390C705.5 390 676 383 657.5 376C653.913 374.643 651.022 373.53 648.633 372.61C638.699 368.787 637.449 368.306 631 367.5C623 366.5 613 379.5 613 379.5H593L552.5 356C552.5 356 503 364.5 494 342C485 319.5 477 319.5 477 319.5H444.5L413.5 295.5L385.5 256.999C385.5 256.999 385.273 255.746 315 246.499C300.195 244.551 293.283 221.353 285.749 196.065C283.614 188.899 281.429 181.565 279 174.499C268 142.499 220.5 150.999 220.5 150.999C220.5 150.999 157.285 132.025 144.5 118C139.997 113.06 135.312 108.537 130.696 104.081L130.696 104.081C122.204 95.8838 113.949 87.914 107.5 77.9995C100.037 73.9392 95.3133 72.4915 86.5 70.4995C89.5772 66.7857 91.3302 64.7099 94.5 60.9995C96.2148 58.9923 98.4154 57.8399 100.233 56.8882C101.775 56.0806 103.041 55.4176 103.5 54.4995L103.527 54.4449Z" fill="#00D4FF" stroke="black"/>
<path d="M87.5 70.5C74.0011 72.2972 67.1206 81.0126 57.5 99.5C50.2136 99.6287 46.8314 100.67 43 105.5V127.5L32 143.5L24 149.5L28.5 160L30 167L35.5 169.297L46 174.5L46.8972 180.332C48.2716 189.266 52.1174 197.637 58 204.5V204.5L70 214.297L104 231.5L140.5 224C140.5 224 155.739 228.439 167.5 236.5C179.261 244.561 184.111 249.907 190.5 260.5C195.967 272.606 195.5 291.5 204.5 291.5C209.265 291.5 218.936 292.902 226.982 294.221C235.53 295.622 243.572 299.352 249.603 305.571C253.811 309.909 258.379 315.194 261 320L276.5 341.5C285.198 348.743 290.12 351.314 299 353C303.108 353.046 306.828 353.017 310.268 352.89C321.453 352.479 332.866 354.033 342.609 359.54V359.54C354.867 366.468 371.37 369.976 381.88 379.346C382.966 380.315 384.015 381.366 385 382.5C387.644 396.975 390.194 402.387 397.5 405C402.591 404.904 409.437 404.128 415.533 403.285C425.007 401.975 434.986 402.589 442.684 408.265C443.633 408.965 444.58 409.711 445.5 410.5C452.5 416.5 458.5 417 458.5 417C504.07 408.287 530.129 408.02 574 419.5C588.097 428.137 594.197 434.642 601 450C635.611 461.011 625.874 453.776 645 458.5C664.126 463.224 673.828 471.593 688.5 482C694.066 482.782 699.178 482.794 712 482C712 482 740.148 500.418 740 500.5C739.852 500.582 766.5 494 766.5 494H780C799.282 512.787 807.318 518.741 827.5 518.5C847.682 518.259 850.5 516 850.5 516L889.5 504L904 503L915 508.5L923 508L934 501L940 499.5H948.5C948.5 499.5 953 500.5 959.5 507C966 513.5 975.775 515.313 979.5 515.5C983.225 515.687 999.504 515.326 1003.5 511.5L1001 503.5L996.5 498.5L995 492.5L988 483.5L982.5 480.5L977.5 471.5C977.433 459.88 978.216 454.042 984 444.5L981.5 435C981.5 435 981.25 427.5 973 423C964.75 418.5 953 421.5 953 421.5C953 421.5 932.257 434.079 923 434C913.743 433.921 891.076 423.521 889.5 424.5C871.004 427.451 860.405 428.116 841 427C841 427 817.2 411.207 800.5 404C782.178 396.093 752 390.5 752 390.5L729.5 388.5L706.5 389.5L671.5 380.5L648 372L637.5 368.5L627.5 367L619 372L612.5 379H593L553 355.5L532 357.5L510.5 355.5L499 348.5C495.546 346.144 494.168 343.666 492.5 337.5L487.5 327.5C487.5 327.5 481 319.5 479.5 319C478 318.5 445.5 319 445.5 319L413.5 296.5L385 257.5L312 245.5L304.5 240.5L296 226.5L278.5 172L268 159.5L247.5 150L219.5 151.5L167.5 132L155.5 126L142 115L128 103L115 86.5L108.5 79L101.5 75L87.5 70.5Z" fill="#008000" stroke="black"/>
<path d="M1.00021 219C-1.46627e-05 225.5 1.00021 227.837 1.00021 233.5C8.32866 235.84 11.3688 238.163 15 244L24.5 245.5V250C30.6655 252.874 32.9465 255.162 34 261L45.5 263L49 269C51.267 270.963 52.5486 271.636 55 272V263C54.8893 258.69 55.4009 256.928 57.5002 255L64 263L72.5 264.5L77 272H83.5L91.5 281.5L100 282.5L101.5 287.5L103.5 290.5L114 293V297L134 302.5L140.5 308.5V316.5L149 326V331.5L153 335.5H158V331H162.5L168 336.5L169 342.5L186 356L197.5 358.5L219.5 376L229.5 367.5L240 369L247.5 375L255 376L269.5 390L279 395L284.5 402H298L308.75 400.5L313 399H319.5L326 426L347.5 428.5L350.5 433L364.5 435H377.5L386.5 442.5L389.5 449L393.5 451L405 440.5L402.5 436L403.5 432H430.5L461.5 448L466.5 446L459 437.5H483.5C485.834 432.5 491.2 423.2 494 426C496.8 428.8 502.167 433.833 504.5 436L509.5 434L518.5 444.5L553 451L564.5 465L563 482.5L559.5 485.5V492L576.5 498L581.5 495L610 519.5L625.5 515.5L627.5 529L646 534.5C647.834 530.833 652.4 523.8 656 525C659.6 526.2 674.167 519.167 681 515.5L694 524V541L708.5 553L722.5 549L736 543L758 554L765.5 549L796.5 560L821 574L861.5 551L872.5 575.5L897.5 581L929.5 575.5L951 571.5C948.667 568.5 951.83 563.658 952.5 565C952.797 565.593 957.495 564.954 961.267 564.337C964.265 563.845 967.346 564.648 969.658 566.62L983 578L987.5 573.5L992 568C995.9 568.869 995 542 995 542L1000.5 537L1003.5 529.5V523V512L992.5 515L979 516L971 514L962.5 510.5L952.5 502L948 499.5H941L934.5 501L926 506.5L923 508L920.5 509H914L904 503.5L889.5 504L844 518.5L819.5 519L809 516L796.5 509.5L779.5 494H766.5L740.5 500.5L712 483H688.5L677 474.5L664 466.5L654 462L642.5 458L633 456.5L622 455.5L612 453.5L601.5 450.5L597 442L591 433.5L583 426.5L574 420L555.5 415.5L537 412.5L517.5 411.5H498.5L459 417.5L451 414.5L443 408.5L436 404.5L428 403H420L412 404.5L405.5 405L398 405.5L392.5 402.5L389 397.5L386 390L384.5 381.5L376.5 375.5L368 371L353.5 365.5L341.5 359.5L328 354L313.5 353L299.5 353.5L290.5 350.5L282 345L278 342L273.5 337.5L266.5 328L254 310.5L247 303L238.5 297.5L220 293L210 292L202 291L198.5 287L196.5 281L192.5 264.5L186.5 254.5L180.5 247.5L173.5 241L165.5 235.5L156 230L140.5 224.5L104.5 232L70.0002 214.5L60.5 206L53.5 197.5L49 188L46.0002 175L31 168C31.0075 177.866 29.5556 180.761 23.5002 179.5C24.4292 184.386 24.6237 187.132 24.5002 192C23.0809 192.254 19.3249 193.66 14.0002 192C9.42932 199.171 2.00043 212.5 1.00021 219Z" fill="#FFFF00" stroke="black"/>
</svg>
