<svg width="1005" height="415" viewBox="0 0 1005 415" fill="none" xmlns="http://www.w3.org/2000/svg">
<path d="M1.44454 52C0.444321 58.5 1.44454 60.8374 1.44454 66.5C8.77299 68.8404 11.8132 71.1626 15.4443 77L24.9443 78.5V83C31.1098 85.8744 33.3908 88.1619 34.4443 94L45.9443 96L49.4443 102C51.7114 103.963 52.9929 104.636 55.4443 105V96C55.3336 91.6898 55.8453 89.928 57.9445 88L64.4443 96L72.9443 97.5L77.4443 105H83.9443L91.9443 114.5L100.444 115.5L101.944 120.5L103.945 123.5L114.444 126V130L134.444 135.5L140.944 141.5V149.5L149.444 159V164.5L153.445 168.5H158.444V164H162.944L168.444 169.5L169.444 175.5L186.444 189L197.944 191.5L219.945 209L229.944 200.5L240.444 202L247.944 208L255.444 209L269.944 223L279.444 228L284.945 235H298.444L309.194 233.5L313.444 232H319.945L326.445 259L347.945 261.5L350.944 266L364.944 268H377.944L386.944 275.5L389.944 282L393.945 284L405.445 273.5L402.944 269L403.944 265H430.945L461.945 281L466.945 279L459.445 270.5H483.945C486.278 265.5 491.645 256.2 494.445 259C497.245 261.8 502.611 266.833 504.945 269L509.945 267L518.945 277.5L553.445 284L564.945 298L563.445 315.5L559.945 318.5V325L576.945 331L581.945 328L610.445 352.5L625.945 348.5L627.945 362L646.445 367.5C648.278 363.833 652.845 356.8 656.445 358C660.045 359.2 674.611 352.167 681.445 348.5L694.445 357V374L708.945 386L722.945 382L736.445 376L758.445 387L765.945 382L796.945 393L821.445 407L861.945 384L872.945 408.5L897.945 414L929.945 408.5L951.445 404.5C949.111 401.5 952.274 396.658 952.945 398C953.241 398.593 957.939 397.954 961.711 397.337C964.709 396.845 967.79 397.648 970.102 399.62L983.445 411L987.944 406.5L992.444 401C996.344 401.869 995.445 375 995.445 375L1000.94 370L1003.94 362.5V356V345L992.944 348L979.444 349L971.444 347L962.944 343.5L952.944 335L948.444 332.5H941.444L934.944 334L926.444 339.5L923.444 341L920.945 342H914.444L904.444 336.5L889.945 337L844.444 351.5L819.944 352L809.444 349L796.944 342.5L779.944 327H766.944L740.944 333.5L712.445 316H688.945L677.444 307.5L664.444 299.5L654.444 295L642.944 291L633.444 289.5L622.444 288.5L612.444 286.5L601.945 283.5L597.444 275L591.444 266.5L583.444 259.5L574.445 253L555.944 248.5L537.444 245.5L517.944 244.5H498.945L459.445 250.5L451.444 247.5L443.444 241.5L436.444 237.5L428.445 236H420.444L412.444 237.5L405.944 238L398.445 238.5L392.944 235.5L389.444 230.5L386.444 223L384.944 214.5L376.944 208.5L368.444 204L353.944 198.5L341.944 192.5L328.444 187L313.944 186L299.945 186.5L290.944 183.5L282.444 178L278.444 175L273.944 170.5L266.945 161L254.444 143.5L247.444 136L238.945 130.5L220.444 126L210.444 125L202.445 124L198.944 120L196.944 114L192.944 97.5L186.945 87.5L180.944 80.5L173.944 74L165.944 68.5L156.445 63L140.944 57.5L104.944 65L70.4445 47.5L60.9443 39L53.9443 30.5L49.4443 21L46.4445 8L31.4443 1C31.4518 10.8663 29.9999 13.7607 23.9445 12.5C24.8735 17.386 25.0681 20.1324 24.9445 25C23.5252 25.2542 19.7693 26.6605 14.4445 25C9.87365 32.1706 2.44476 45.5 1.44454 52Z" fill="#FFFF00" stroke="black"/>
</svg>
